<svg width="129" height="32" viewBox="0 0 129 32" fill="none" xmlns="http://www.w3.org/2000/svg">
<path d="M18.6155 22.1538C19.4389 23.1871 20.5868 23.9504 21.8968 24.3355C23.2067 24.7206 24.6121 24.708 25.914 24.2996C27.216 23.8912 28.3483 23.1075 29.1507 22.0598C29.9532 21.012 30.385 19.7531 30.385 18.4615C30.385 17.0732 29.8776 15.8055 29.0537 14.7766L29.0772 14.7692L16 0L2.92283 14.7692L2.94637 14.7766C2.08697 15.8351 1.61941 17.1294 1.61511 18.4615C1.61511 19.7531 2.0469 21.012 2.84932 22.0598C3.65174 23.1075 4.78411 23.8912 6.08603 24.2996C7.38794 24.708 8.7934 24.7206 10.1033 24.3355C11.4132 23.9504 12.5612 23.1871 13.3846 22.1538L14.6923 20.5145V25.8462C14.6923 29.5385 8.15371 29.5385 8.15371 29.5385C7.80688 29.5385 7.47426 29.6681 7.22902 29.8989C6.98377 30.1298 6.84599 30.4428 6.84599 30.7692C6.84599 31.0957 6.98377 31.4087 7.22902 31.6395C7.47426 31.8703 7.80688 32 8.15371 32H23.8464C24.1932 32 24.5258 31.8703 24.7711 31.6395C25.0163 31.4087 25.1541 31.0957 25.1541 30.7692C25.1541 30.4428 25.0163 30.1298 24.7711 29.8989C24.5258 29.6681 24.1932 29.5385 23.8464 29.5385C23.8464 29.5385 17.3078 29.5385 17.3078 25.8462V20.5145L18.6155 22.1538Z" fill="#AEC0F5"/>
<path d="M45.2927 10.9941C44.2454 10.9941 43.4217 11.3792 42.8218 12.1494C42.2218 12.9196 41.9219 13.9825 41.9219 15.3383C41.9219 16.7573 42.2091 17.8309 42.7836 18.5589C43.3632 19.2868 44.1996 19.6508 45.2927 19.6508C45.7656 19.6508 46.2231 19.6034 46.6655 19.5084C47.1078 19.4082 47.5679 19.2816 48.0458 19.1286V20.7507C47.1714 21.0936 46.1799 21.2651 45.0716 21.2651C43.4395 21.2651 42.1862 20.7534 41.3117 19.73C40.4372 18.7013 40 17.2321 40 15.3225C40 14.1197 40.211 13.0673 40.633 12.1652C41.0601 11.2631 41.6753 10.572 42.4786 10.092C43.2819 9.61194 44.225 9.37191 45.308 9.37191C46.4468 9.37191 47.4993 9.61985 48.4653 10.1157L47.8094 11.6904C47.4332 11.5058 47.0341 11.3449 46.6121 11.2077C46.1952 11.0653 45.7554 10.9941 45.2927 10.9941Z" fill="white"/>
<path d="M55.535 21.1068L55.1765 19.8882H55.1155C54.7088 20.421 54.2995 20.785 53.8877 20.9802C53.4758 21.1701 52.9471 21.2651 52.3014 21.2651C51.4726 21.2651 50.8244 21.033 50.3566 20.5687C49.894 20.1045 49.6626 19.4477 49.6626 18.5984C49.6626 17.6963 49.9855 17.0158 50.6312 16.5569C51.2769 16.0979 52.2607 15.8473 53.5826 15.8051L55.0392 15.7577V15.2908C55.0392 14.7316 54.9121 14.3149 54.6579 14.0406C54.4088 13.761 54.0199 13.6212 53.4911 13.6212C53.0589 13.6212 52.6446 13.6871 52.248 13.819C51.8514 13.9509 51.4701 14.1065 51.104 14.2859L50.5244 12.9565C50.982 12.7085 51.4828 12.5213 52.0268 12.3947C52.5708 12.2628 53.0843 12.1968 53.5674 12.1968C54.6401 12.1968 55.4485 12.4395 55.9925 12.9248C56.5416 13.4102 56.8162 14.1724 56.8162 15.2117V21.1068H55.535ZM52.8657 19.8408C53.5165 19.8408 54.0376 19.6535 54.4291 19.2789C54.8257 18.8991 55.024 18.3689 55.024 17.6884V16.9288L53.941 16.9763C53.0971 17.0079 52.4819 17.1556 52.0955 17.4194C51.7141 17.6779 51.5235 18.0762 51.5235 18.6142C51.5235 19.0046 51.6353 19.3079 51.859 19.5242C52.0827 19.7352 52.4183 19.8408 52.8657 19.8408Z" fill="white"/>
<path d="M64.9841 18.6142C64.9841 19.4688 64.6841 20.1256 64.0841 20.5846C63.4842 21.0382 62.625 21.2651 61.5064 21.2651C60.3828 21.2651 59.4803 21.0884 58.7991 20.7349V19.1286C59.7905 19.6034 60.7133 19.8408 61.5674 19.8408C62.6707 19.8408 63.2224 19.4952 63.2224 18.8042C63.2224 18.5826 63.1614 18.398 63.0393 18.2502C62.9173 18.1025 62.7165 17.9496 62.4368 17.7913C62.1572 17.633 61.7683 17.4537 61.27 17.2532C60.2989 16.8628 59.6405 16.4725 59.2948 16.0821C58.9541 15.6917 58.7838 15.1853 58.7838 14.5628C58.7838 13.8137 59.0736 13.2334 59.6532 12.822C60.2379 12.4052 61.031 12.1968 62.0326 12.1968C63.0241 12.1968 63.9621 12.4052 64.8468 12.822L64.2672 14.2226C63.3571 13.8322 62.5919 13.637 61.9716 13.637C61.026 13.637 60.5531 13.9166 60.5531 14.4758C60.5531 14.7501 60.6751 14.9822 60.9192 15.1721C61.1683 15.362 61.7073 15.6231 62.536 15.9555C63.2325 16.2351 63.7384 16.4909 64.0536 16.723C64.3689 16.9552 64.6027 17.2242 64.7553 17.5302C64.9078 17.8309 64.9841 18.1922 64.9841 18.6142Z" fill="white"/>
<path d="M68.721 21.1068H66.9288V12.3551H68.721V21.1068ZM66.822 10.0366C66.822 9.70425 66.9085 9.4484 67.0813 9.26904C67.2593 9.08968 67.5109 9 67.8363 9C68.1516 9 68.3956 9.08968 68.5685 9.26904C68.7464 9.4484 68.8354 9.70425 68.8354 10.0366C68.8354 10.3531 68.7464 10.6037 68.5685 10.7883C68.3956 10.9677 68.1516 11.0574 67.8363 11.0574C67.5109 11.0574 67.2593 10.9677 67.0813 10.7883C66.9085 10.6037 66.822 10.3531 66.822 10.0366Z" fill="white"/>
<path d="M78.7116 21.1068H76.9117V15.726C76.9117 15.0508 76.7795 14.547 76.5152 14.2146C76.2559 13.8823 75.8415 13.7161 75.2721 13.7161C74.5145 13.7161 73.9603 13.9482 73.6095 14.4125C73.2587 14.8767 73.0833 15.6548 73.0833 16.7468V21.1068H71.2911V12.3551H72.6943L72.946 13.5025H73.0375C73.2917 13.0857 73.6527 12.7639 74.1205 12.5371C74.5882 12.3103 75.1068 12.1968 75.6763 12.1968C77.6998 12.1968 78.7116 13.2651 78.7116 15.4016V21.1068Z" fill="white"/>
<path d="M88.6869 16.7151C88.6869 18.1447 88.3335 19.2605 87.6268 20.0623C86.9201 20.8642 85.9363 21.2651 84.6754 21.2651C83.8873 21.2651 83.1908 21.0804 82.5858 20.7112C81.9807 20.3419 81.5155 19.8117 81.1901 19.1207C80.8648 18.4296 80.7021 17.6278 80.7021 16.7151C80.7021 15.2961 81.0529 14.1883 81.7545 13.3917C82.4561 12.5951 83.445 12.1968 84.7212 12.1968C85.9414 12.1968 86.9074 12.6057 87.6192 13.4233C88.331 14.2357 88.6869 15.333 88.6869 16.7151ZM82.5476 16.7151C82.5476 18.7356 83.2671 19.7458 84.7059 19.7458C86.1295 19.7458 86.8413 18.7356 86.8413 16.7151C86.8413 14.7158 86.1244 13.7161 84.6907 13.7161C83.9382 13.7161 83.3916 13.9746 83.051 14.4916C82.7154 15.0086 82.5476 15.7498 82.5476 16.7151Z" fill="white"/>
<path d="M95.0015 21.1068V9.53808H96.8243V19.4847H101.545V21.1068H95.0015Z" fill="white"/>
<path d="M110.758 16.7151C110.758 18.1447 110.404 19.2605 109.698 20.0623C108.991 20.8642 108.007 21.2651 106.746 21.2651C105.958 21.2651 105.262 21.0804 104.657 20.7112C104.052 20.3419 103.586 19.8117 103.261 19.1207C102.936 18.4296 102.773 17.6278 102.773 16.7151C102.773 15.2961 103.124 14.1883 103.825 13.3917C104.527 12.5951 105.516 12.1968 106.792 12.1968C108.012 12.1968 108.978 12.6057 109.69 13.4233C110.402 14.2357 110.758 15.333 110.758 16.7151ZM104.618 16.7151C104.618 18.7356 105.338 19.7458 106.777 19.7458C108.2 19.7458 108.912 18.7356 108.912 16.7151C108.912 14.7158 108.195 13.7161 106.761 13.7161C106.009 13.7161 105.462 13.9746 105.122 14.4916C104.786 15.0086 104.618 15.7498 104.618 16.7151Z" fill="white"/>
<path d="M119.947 12.3551V13.3759L118.506 13.6528C118.638 13.8375 118.748 14.0643 118.834 14.3333C118.92 14.6024 118.964 14.8872 118.964 15.1879C118.964 16.09 118.664 16.7995 118.064 17.3165C117.464 17.8335 116.638 18.092 115.585 18.092C115.316 18.092 115.072 18.0709 114.853 18.0287C114.467 18.2766 114.273 18.5668 114.273 18.8991C114.273 19.0996 114.362 19.2499 114.54 19.3501C114.723 19.4504 115.056 19.5005 115.539 19.5005H117.011C117.942 19.5005 118.648 19.7062 119.131 20.1177C119.614 20.5292 119.856 21.1227 119.856 21.8981C119.856 22.8899 119.462 23.6548 118.674 24.1929C117.886 24.731 116.747 25 115.257 25C114.108 25 113.231 24.789 112.626 24.367C112.021 23.9449 111.719 23.3436 111.719 22.5628C111.719 22.0247 111.881 21.5711 112.207 21.2018C112.537 20.8378 112.997 20.5846 113.587 20.4421C113.348 20.3366 113.15 20.1678 112.992 19.9357C112.84 19.6983 112.763 19.4504 112.763 19.1919C112.763 18.8648 112.852 18.5879 113.03 18.361C113.208 18.1342 113.473 17.91 113.823 17.6884C113.386 17.4932 113.03 17.1767 112.756 16.7389C112.486 16.2957 112.352 15.7788 112.352 15.1879C112.352 14.2384 112.639 13.5025 113.213 12.9802C113.793 12.458 114.617 12.1968 115.684 12.1968C115.923 12.1968 116.172 12.2153 116.432 12.2522C116.696 12.2839 116.894 12.3182 117.027 12.3551H119.947ZM113.32 22.4679C113.32 22.8688 113.493 23.1774 113.839 23.3937C114.19 23.61 114.68 23.7181 115.311 23.7181C116.287 23.7181 117.014 23.573 117.492 23.2829C117.97 22.9927 118.209 22.6076 118.209 22.1276C118.209 21.7478 118.076 21.4761 117.812 21.3126C117.553 21.1543 117.067 21.0752 116.355 21.0752H114.998C114.484 21.0752 114.075 21.1991 113.77 21.4471C113.47 21.7003 113.32 22.0406 113.32 22.4679ZM114.09 15.1879C114.09 15.7366 114.225 16.1586 114.495 16.454C114.769 16.7494 115.161 16.8971 115.669 16.8971C116.706 16.8971 117.225 16.3221 117.225 15.1721C117.225 14.6024 117.095 14.1645 116.836 13.8586C116.582 13.5473 116.193 13.3917 115.669 13.3917C115.15 13.3917 114.756 13.5447 114.487 13.8506C114.223 14.1566 114.09 14.6024 114.09 15.1879Z" fill="white"/>
<path d="M129 16.7151C129 18.1447 128.647 19.2605 127.94 20.0623C127.233 20.8642 126.249 21.2651 124.989 21.2651C124.2 21.2651 123.504 21.0804 122.899 20.7112C122.294 20.3419 121.829 19.8117 121.503 19.1207C121.178 18.4296 121.015 17.6278 121.015 16.7151C121.015 15.2961 121.366 14.1883 122.068 13.3917C122.769 12.5951 123.758 12.1968 125.034 12.1968C126.254 12.1968 127.221 12.6057 127.932 13.4233C128.644 14.2357 129 15.333 129 16.7151ZM122.861 16.7151C122.861 18.7356 123.58 19.7458 125.019 19.7458C126.443 19.7458 127.154 18.7356 127.154 16.7151C127.154 14.7158 126.438 13.7161 125.004 13.7161C124.251 13.7161 123.705 13.9746 123.364 14.4916C123.029 15.0086 122.861 15.7498 122.861 16.7151Z" fill="white"/>
</svg>
