<svg width="32" height="32" viewBox="0 0 32 32" fill="none" xmlns="http://www.w3.org/2000/svg">
<path d="M16.9457 28.2465H21.6705V31.0817H16.9457V28.2465Z" fill="#8DA4EF"/>
<path d="M25.4505 17.8513H23.5609V20.6865H24.5049C24.9529 20.6865 25.3833 20.7649 25.7817 20.9089L28.2297 18.4609C27.3849 18.0689 26.4441 17.8513 25.4505 17.8513Z" fill="#8DA4EF"/>
<path d="M11.273 28.2465H15.0538V31.0817H11.273V28.2465Z" fill="#8DA4EF"/>
<path d="M7.49324 26.3567H24.506C25.5492 26.3567 26.3972 25.5087 26.3972 24.4671C26.3972 23.4255 25.5492 22.5775 24.506 22.5775H7.49324C6.45164 22.5775 5.60364 23.4255 5.60364 24.4671C5.60364 25.5087 6.45164 26.3567 7.49324 26.3567Z" fill="#8DA4EF"/>
<path d="M31.9987 23.5215C31.7715 21.9375 30.9843 20.5343 29.8435 19.5199L27.3651 21.9983C27.7395 22.4319 28.0179 22.9503 28.1667 23.5215H31.9987Z" fill="#8DA4EF"/>
<path d="M27.3651 26.9346L29.8435 29.413C30.9843 28.3986 31.7715 26.9954 31.9987 25.4114H28.1667C28.0179 25.9826 27.7395 26.501 27.3651 26.9346Z" fill="#8DA4EF"/>
<path d="M6.21772 28.0257L3.76971 30.4721C4.61451 30.8641 5.55691 31.0833 6.54891 31.0833H9.38412V28.2481H7.49452C7.04651 28.2481 6.61612 28.1697 6.21772 28.0257Z" fill="#8DA4EF"/>
<path d="M4.6336 21.9983L2.1552 19.5199C1.0144 20.5343 0.2272 21.9375 0 23.5215H3.832C3.9808 22.9503 4.2592 22.4319 4.6336 21.9983Z" fill="#8DA4EF"/>
<path d="M3.832 25.4114H0C0.2272 26.9954 1.0144 28.3986 2.1552 29.413L4.6336 26.9346C4.2592 26.501 3.9808 25.9826 3.832 25.4114Z" fill="#8DA4EF"/>
<path d="M24.5049 28.2464H23.5609V31.0816H25.4505C26.4441 31.0816 27.3849 30.8624 28.2297 30.4704L25.7817 28.024C25.3833 28.168 24.9529 28.2464 24.5049 28.2464Z" fill="#8DA4EF"/>
<path d="M11.273 17.8513H15.0538V20.6865H11.273V17.8513Z" fill="#8DA4EF"/>
<path d="M16.9457 17.8513H21.6705V20.6865H16.9457V17.8513Z" fill="#8DA4EF"/>
<path d="M7.49452 20.6865H9.38412V17.8513H6.54891C5.55691 17.8513 4.61451 18.0705 3.76971 18.4609L6.21772 20.9089C6.61612 20.7649 7.04651 20.6865 7.49452 20.6865Z" fill="#8DA4EF"/>
<path d="M6.54789 15.96H25.4503C26.2471 15.96 27.0311 16.072 27.7831 16.2864L30.7271 10.5904L29.3015 10.4832C28.0247 10.3872 26.7911 9.7264 26.0087 8.592L25.2247 7.4544H23.9607L23.7383 8.0848C23.4647 8.856 22.7319 9.3616 21.9127 9.344C20.9255 9.3216 20.1159 8.5344 20.0679 7.5488C20.0407 7.0016 20.2423 6.488 20.6327 6.1056L20.9159 5.8272V4.6512L15.9991 0.919998L11.0823 4.6512V5.8272L11.3655 6.1056C11.7575 6.4896 11.9575 7.0016 11.9319 7.5488C11.8839 8.5328 11.0727 9.3216 10.0855 9.344C9.26629 9.3616 8.53349 8.856 8.26149 8.0848L8.03749 7.4544H6.71429L6.36869 8.1184C5.66149 9.48 4.27109 10.384 2.74309 10.4816L1.25989 10.5696L4.21509 16.2864C4.96869 16.072 5.75269 15.96 6.54789 15.96ZM15.0535 10.2896H16.9447V12.1792H15.0535V10.2896Z" fill="#8DA4EF"/>
</svg>
