<svg width="24" height="24" viewBox="0 0 24 24" fill="none" xmlns="http://www.w3.org/2000/svg">
<path d="M12.5162 6.28262C11.7445 4.79848 10.1934 3.78296 8.40864 3.78296C5.85846 3.78296 3.7832 5.85822 3.7832 8.4084C3.7832 10.1931 4.79873 11.7442 6.28286 12.516C7.25544 9.57929 9.57953 7.2552 12.5162 6.28262Z" fill="#3E63DD"/>
<path d="M2.41756 9.11328H0C0.149045 10.9119 0.865218 12.5527 1.9679 13.8549L3.6756 12.1472C2.99984 11.2921 2.54892 10.2513 2.41629 9.11328H2.41756Z" fill="#3E63DD"/>
<path d="M13.8549 1.9679C12.5527 0.865218 10.9119 0.149045 9.11328 0V2.41756C10.2501 2.55018 11.2921 2.99984 12.1472 3.67686L13.8549 1.96916V1.9679Z" fill="#3E63DD"/>
<path d="M7.70454 2.41756V0C5.90589 0.149045 4.26514 0.865218 2.96289 1.9679L4.67059 3.6756C5.5257 2.99984 6.56649 2.54892 7.70454 2.41629V2.41756Z" fill="#3E63DD"/>
<path d="M3.6756 4.67083L1.9679 2.96313C0.865218 4.26538 0.149045 5.90614 0 7.70478H2.41756C2.55018 6.568 2.99984 5.52595 3.67686 4.67083H3.6756Z" fill="#3E63DD"/>
<path d="M5.93437 13.9103C5.48092 13.7057 5.05779 13.4467 4.67254 13.1423L2.96484 14.85C3.79722 15.5548 4.76728 16.1005 5.82827 16.4428C5.80427 16.1611 5.79038 15.8769 5.79038 15.5889C5.79038 15.0168 5.83964 14.4559 5.93437 13.9103Z" fill="#3E63DD"/>
<path d="M16.443 5.82656C16.1007 4.76557 15.5551 3.79551 14.8503 2.96313L13.1426 4.67083C13.447 5.05608 13.7059 5.47921 13.9105 5.93266C14.4562 5.83793 15.017 5.78867 15.5892 5.78867C15.8772 5.78867 16.1614 5.8013 16.443 5.82656Z" fill="#3E63DD"/>
<path d="M20.2147 15.5891C20.2147 13.0389 18.1395 10.9636 15.5893 10.9636C13.0391 10.9636 10.9639 13.0389 10.9639 15.5891C10.9639 18.1392 13.0391 20.2145 15.5893 20.2145C18.1395 20.2145 20.2147 18.1392 20.2147 15.5891ZM17.5913 16.2067L17.4018 18.0521L15.588 17.6618L13.7742 18.0521L13.5848 16.2067L12.6526 14.6026L14.3502 13.8523L15.588 12.4705L16.8259 13.8523L18.5235 14.6026L17.5913 16.2067Z" fill="#3E63DD"/>
<path d="M9.59724 16.2927H7.17969C7.32873 18.0914 8.0449 19.7321 9.14758 21.0344L10.8553 19.3267C10.1795 18.4716 9.72861 17.4295 9.59598 16.2927H9.59724Z" fill="#3E63DD"/>
<path d="M16.293 9.59696C17.4298 9.72958 18.4718 10.1792 19.3269 10.8563L21.0346 9.14856C19.7324 8.04588 18.0916 7.32971 16.293 7.18066V9.59822V9.59696Z" fill="#3E63DD"/>
<path d="M14.8852 9.597V7.17944C13.0866 7.32849 11.4458 8.04466 10.1436 9.14734L11.8513 10.855C12.7064 10.178 13.7472 9.72836 14.8852 9.59574V9.597Z" fill="#3E63DD"/>
<path d="M9.59696 14.8854C9.72958 13.7487 10.1792 12.7066 10.8563 11.8515L9.14856 10.1438C8.04588 11.446 7.32971 13.0868 7.18066 14.8854H9.59822H9.59696Z" fill="#3E63DD"/>
<path d="M20.3216 19.3267L22.0293 21.0344C23.132 19.7321 23.8481 18.0914 23.9972 16.2927H21.5796C21.447 17.4295 20.9973 18.4716 20.3203 19.3267H20.3216Z" fill="#3E63DD"/>
<path d="M16.293 21.5825V24.0001C18.0916 23.851 19.7324 23.1348 21.0346 22.0322L19.3269 20.3245C18.4718 21.0015 17.4298 21.4511 16.293 21.5838V21.5825Z" fill="#3E63DD"/>
<path d="M10.1436 22.0307C11.4458 23.1334 13.0866 23.8496 14.8852 23.9986V21.5811C13.7484 21.4485 12.7064 20.9988 11.8513 20.3218L10.1436 22.0295V22.0307Z" fill="#3E63DD"/>
<path d="M21.5823 14.8854H23.9998C23.8508 13.0868 23.1346 11.446 22.0319 10.1438L20.3242 11.8515C21.0012 12.7066 21.4509 13.7474 21.5835 14.8854H21.5823Z" fill="#3E63DD"/>
<path d="M15.5886 14.5825L15.1984 15.0183L14.6641 15.2545L14.9571 15.7597L15.0165 16.342L15.5874 16.2195L16.1596 16.342L16.2189 15.7597L16.512 15.2545L15.9777 15.0183L15.5874 14.5825H15.5886Z" fill="#3E63DD"/>
</svg>
