<svg width="24" height="24" viewBox="0 0 24 24" fill="none" xmlns="http://www.w3.org/2000/svg">
<g clip-path="url(#clip0_2649_70236)">
<path d="M5.26594 1.21854C5.28153 0.871072 5.60539 0.579733 5.95197 0.595325C9.96301 0.595325 13.9736 0.595325 17.9846 0.595325C18.3308 0.58107 18.6528 0.871518 18.668 1.21854C18.676 1.48894 18.6684 1.75934 18.6711 2.02975C19.6307 2.03108 20.5898 2.02707 21.5489 2.03153C21.8972 2.0342 22.2033 2.34559 22.1993 2.69395C22.1993 3.80228 22.2019 4.91062 22.1975 6.01851C22.181 7.57232 21.5021 9.10118 20.3706 10.1641C19.3919 11.0996 18.0791 11.6747 16.7275 11.7584C16.3373 12.5353 15.8963 13.2855 15.4067 14.0041C13.1138 14.0041 10.8205 14.0041 8.52725 14.0041C8.03857 13.2851 7.59666 12.5349 7.20642 11.7584C5.8749 11.6733 4.58125 11.1156 3.60656 10.2042C2.44922 9.13949 1.75205 7.59147 1.73646 6.01762C1.73245 4.90928 1.73513 3.80095 1.73513 2.69306C1.73112 2.34336 2.04027 2.03153 2.38997 2.03153C3.34774 2.02707 4.3055 2.03108 5.26327 2.02975C5.26594 1.75934 5.25882 1.4885 5.26594 1.21854ZM3.0711 3.36617C3.0711 4.22459 3.07065 5.08302 3.07154 5.94144C3.07288 6.79675 3.3268 7.64939 3.79321 8.36615C4.42044 9.34263 5.43567 10.0576 6.56628 10.3191C5.69137 8.11268 5.26772 5.73697 5.26327 3.36617C4.53269 3.36617 3.80167 3.36617 3.0711 3.36617ZM18.6711 3.36617C18.664 5.73697 18.2435 8.11268 17.3681 10.3187C17.6755 10.246 17.9757 10.1431 18.2617 10.0091C19.5291 9.42014 20.4891 8.21558 20.7671 6.84486C20.894 6.28401 20.8584 5.70713 20.8633 5.13737C20.8633 4.54711 20.8633 3.95642 20.8633 3.36617C20.1323 3.36617 19.4017 3.36572 18.6711 3.36617ZM10.0628 4.30032C9.75675 4.35511 9.51709 4.64512 9.52154 4.9565C9.52154 5.70178 9.51932 6.4475 9.52288 7.19322C9.53669 8.02136 9.99642 8.82365 10.7016 9.2571C11.0183 9.44687 11.3337 9.63931 11.6536 9.82374C11.8879 9.95738 12.1846 9.90972 12.3984 9.75736C12.8555 9.46469 13.3722 9.24284 13.7437 8.83479C14.1767 8.36882 14.4217 7.73447 14.4133 7.09789C14.4124 6.38424 14.4142 5.67015 14.4124 4.9565C14.42 4.60235 14.1059 4.28518 13.7518 4.28829C12.5926 4.28473 11.4331 4.28829 10.2735 4.28607C10.2031 4.28696 10.1323 4.28696 10.0628 4.30032Z" fill="#3E63DD"/>
<path d="M10.8581 5.62343C11.5976 5.62343 12.337 5.62298 13.077 5.62343C13.0761 6.13082 13.0792 6.63822 13.0756 7.14561C13.0721 7.51981 12.8783 7.88643 12.5673 8.0958C12.3722 8.2241 12.1669 8.3368 11.9673 8.45797C11.7793 8.34037 11.5851 8.23345 11.3975 8.11585C11.0706 7.9087 10.8603 7.53228 10.859 7.14516C10.8558 6.63777 10.8585 6.13038 10.8581 5.62343Z" fill="#3E63DD"/>
<path d="M8.86407 15.3552C10.8936 15.3486 12.9237 15.3548 14.9532 15.3521C15.2027 15.3446 15.4602 15.4127 15.6535 15.5758C15.9262 15.7931 16.0674 16.1611 16.009 16.505C15.9569 16.8538 15.7039 17.1625 15.372 17.2819C15.1818 17.3568 14.9733 17.3452 14.7728 17.3452C12.8274 17.3447 10.8821 17.3456 8.93669 17.3447C8.61327 17.3532 8.29164 17.1977 8.10321 16.9344C7.88359 16.64 7.85062 16.2212 8.02124 15.8961C8.17849 15.582 8.5126 15.3664 8.86407 15.3552Z" fill="#3E63DD"/>
<path d="M7.05982 22.1946C7.96636 21.219 8.60205 19.9904 8.84483 18.6789C10.9261 18.6784 13.0078 18.6784 15.0895 18.6789C15.314 19.8968 15.878 21.0444 16.6852 21.9816C16.7912 22.1122 16.9164 22.2262 17.0153 22.3621C17.1805 22.5973 17.1636 22.9389 16.9787 23.1586C16.8464 23.3229 16.6344 23.4111 16.425 23.4036C13.4381 23.4027 10.4517 23.4054 7.46476 23.4022C7.05938 23.412 6.72127 22.9933 6.81793 22.5991C6.84689 22.4391 6.94935 22.3077 7.05982 22.1946Z" fill="#3E63DD"/>
</g>
<defs>
<clipPath id="clip0_2649_70236">
<rect width="24" height="23.9987" fill="white"/>
</clipPath>
</defs>
</svg>
