<svg width="30" height="30" viewBox="0 0 30 30" fill="none" xmlns="http://www.w3.org/2000/svg">
<path d="M21.5858 3.52875C20.1984 2.3984 18.3753 0.310377 15.9231 2.2257C15.8101 2.3199 15.7456 2.42979 15.6488 2.53969C14.3743 4.10963 14.8905 6.29184 16.2941 7.79898L18.7786 10.3266L21.2954 12.8856C21.5213 13.1211 21.8439 13.231 22.1505 13.1996H22.0537C22.3602 13.231 22.6829 13.1211 22.9087 12.8856L25.4255 10.3266L27.91 7.79898C29.2975 6.29184 29.8299 4.10963 28.5554 2.53969C28.4747 2.42979 28.394 2.3199 28.2811 2.2257C25.8934 0.310377 23.8929 2.3356 22.6022 3.49735C22.3118 3.74854 21.8601 3.76424 21.5535 3.52875H21.5858Z" fill="#8DA4EF"/>
<path d="M11.9705 20.6416L9.80862 18.5379L7.61451 16.4027C7.42091 16.2143 7.16278 16.1359 6.90464 16.1516C6.64651 16.1516 6.38838 16.23 6.19478 16.4027L4.00066 18.5379L1.83881 20.6416C0.628819 21.8975 0.177089 23.703 1.29028 25.0217C1.37095 25.1002 1.41935 25.2101 1.51615 25.2729C2.83907 26.2149 4.1136 25.4456 5.33972 24.7077C5.51719 24.5978 5.72692 24.8019 5.63012 24.9746L3.56507 28.507C3.37147 28.8524 3.61347 29.2762 4.0168 29.2762C4.0168 29.2762 6.17865 28.8053 6.90464 28.8053C7.63064 28.8053 9.77636 29.2762 9.77636 29.2762C10.1797 29.2762 10.4217 28.8524 10.2281 28.507L8.16304 24.9746C8.0501 24.8019 8.25984 24.5978 8.45343 24.7077C9.67956 25.4456 10.9702 26.2149 12.277 25.2729C12.3738 25.1944 12.4383 25.1002 12.5029 25.0217C13.6161 23.7187 13.1643 21.8975 11.9543 20.6416H11.9705Z" fill="#8DA4EF"/>
<path d="M26.6519 19.9975C25.571 19.9975 24.3288 20.7196 23.4576 21.3633C24.1029 20.5155 24.7966 19.3695 24.7966 18.349C24.7966 16.4494 23.7157 15.7586 22.3928 15.7586C21.0698 15.7586 19.9889 16.4651 19.9889 18.349C19.9889 19.3695 20.6827 20.5155 21.328 21.3633C20.4407 20.7196 19.2145 19.9975 18.1336 19.9975C16.1815 19.9975 15.4716 21.0493 15.4716 22.3367C15.4716 23.624 16.1976 24.6759 18.1336 24.6759C19.0209 24.6759 19.9889 24.1892 20.8117 23.6711C21.0053 23.5455 21.2634 23.7339 21.1828 23.9537L19.5856 28.8833C19.4243 29.2444 19.7792 29.4956 20.1019 29.4956C20.1019 29.4956 21.699 29.1816 22.2798 29.1816C22.8606 29.1816 24.4901 29.4956 24.4901 29.4956C24.8128 29.4956 25.1193 29.2287 24.958 28.8833L23.4898 23.8595C23.4253 23.6397 23.6834 23.4513 23.877 23.5926C24.716 24.1578 25.7485 24.6916 26.6842 24.6916C28.6363 24.6916 29.3462 23.6397 29.3462 22.3524C29.3462 21.065 28.6202 20.0132 26.6842 20.0132L26.6519 19.9975Z" fill="#8DA4EF"/>
<path d="M6.56577 13.7809C5.27512 11.2062 3.88766 9.43213 1.48381 7.5482C1.30634 7.40691 1.30634 7.17142 1.48381 7.04582C3.85539 5.36599 5.67845 3.23087 6.56577 0.813168C6.66257 0.53058 7.4531 0.53058 7.56603 0.813168C8.87282 4.12574 10.228 5.36599 12.648 7.04582C12.8255 7.17142 12.8255 7.40691 12.648 7.5482C10.5507 9.14954 9.11482 10.7509 7.56603 13.7809C7.42083 14.0477 6.71097 14.0477 6.56577 13.7809Z" fill="#8DA4EF"/>
</svg>
