<svg width="32" height="32" viewBox="0 0 32 32" fill="none" xmlns="http://www.w3.org/2000/svg">
<path d="M0 8.23993V31.0639C0 31.5826 0.419038 32.002 0.937365 32.002H31.0626C31.581 32.002 32 31.5826 32 31.0639V8.23993H0ZM7.91796 16.8181C7.93142 16.7877 7.94489 16.7574 7.96172 16.7288C8.8284 14.6975 10.4574 12.9897 12.6519 12.0801C14.8481 11.1706 17.2058 11.2245 19.2555 12.0481C19.2858 12.0582 19.3178 12.0683 19.3481 12.0801C19.3784 12.0936 19.4087 12.1071 19.4373 12.1222C21.4668 12.9897 23.1733 14.6201 24.082 16.8181C24.9757 18.9773 24.9757 21.3572 24.0837 23.5165C24.082 23.5165 24.082 23.5165 24.082 23.5182C24.082 23.5182 24.082 23.5199 24.082 23.5216C23.1884 25.6808 21.5072 27.3635 19.3498 28.2578C18.2593 28.7092 17.1267 28.9248 16.0126 28.9248C14.8986 28.9248 13.7811 28.7042 12.7512 28.2915C12.7192 28.2814 12.6872 28.2713 12.6536 28.2578C12.6233 28.2443 12.5947 28.2309 12.5661 28.2157C10.5348 27.3483 8.83008 25.7179 7.91964 23.5199C7.01089 21.3219 7.06474 18.9622 7.88599 16.9124C7.89608 16.8804 7.90618 16.8501 7.91964 16.8181H7.91796Z" fill="#8DA4EF"/>
<path d="M32 6.3653V0.940169C32 0.421405 31.581 0.00201416 31.0626 0.00201416H0.937365C0.419038 0.00201416 0 0.421405 0 0.940169V6.36361H32V6.3653ZM24.2975 4.12181C23.7724 4.12181 23.3836 3.69231 23.3601 3.18366C23.3382 2.67668 23.8077 2.2455 24.2975 2.2455C24.8242 2.2455 25.2129 2.675 25.2365 3.18366C25.2584 3.69063 24.7889 4.12181 24.2975 4.12181ZM27.8265 4.12181C27.3014 4.12181 26.9126 3.69231 26.8891 3.18366C26.8672 2.67668 27.3367 2.2455 27.8265 2.2455C28.3532 2.2455 28.7419 2.675 28.7655 3.18366C28.7874 3.69063 28.3179 4.12181 27.8265 4.12181Z" fill="#8DA4EF"/>
<path d="M12.529 26.1036L13.3772 24.0538C12.8875 23.7237 12.4584 23.2992 12.1167 22.7939L10.0687 23.6428C10.6779 24.6854 11.5328 25.5208 12.529 26.1019V26.1036Z" fill="#8DA4EF"/>
<path d="M11.3982 19.2771L9.35349 18.4299C9.06067 19.5466 9.04384 20.7425 9.35012 21.9114L11.3982 21.0625C11.2821 20.473 11.2821 19.8683 11.3982 19.2788V19.2771Z" fill="#8DA4EF"/>
<path d="M20.6002 21.0591L22.6465 21.908C22.9394 20.7913 22.9562 19.5955 22.6499 18.4266L20.6018 19.2754C20.718 19.8751 20.7129 20.4797 20.6002 21.0591Z" fill="#8DA4EF"/>
<path d="M19.4693 14.236L18.6228 16.2841C19.1108 16.6143 19.5417 17.037 19.8833 17.544L21.9313 16.6951C21.3221 15.6525 20.4656 14.8188 19.4693 14.236Z" fill="#8DA4EF"/>
<path d="M17.741 26.8245L16.8911 24.7747C16.5966 24.832 16.3004 24.8606 16.0076 24.8606C15.7148 24.8606 15.4034 24.8303 15.1106 24.773L14.2625 26.8228C15.3782 27.1159 16.573 27.131 17.741 26.8262V26.8245Z" fill="#8DA4EF"/>
<path d="M19.8816 22.7939C19.5518 23.2841 19.1294 23.7153 18.6228 24.0572L19.471 26.107C20.5127 25.4972 21.3474 24.6399 21.928 23.6445L19.8816 22.7956V22.7939Z" fill="#8DA4EF"/>
<path d="M14.2607 13.5151L15.1089 15.5649C15.708 15.4487 16.3122 15.4538 16.8911 15.5683L17.7393 13.5185C17.1721 13.3703 16.5848 13.2911 15.9924 13.2911C15.4001 13.2911 14.8346 13.3636 14.2607 13.5151Z" fill="#8DA4EF"/>
<path d="M12.1151 17.544C12.45 17.0454 12.8774 16.6176 13.3756 16.2825L12.5274 14.2343C11.4857 14.8441 10.6527 15.7014 10.0704 16.6968L12.1151 17.544Z" fill="#8DA4EF"/>
<path d="M13.4025 21.2461C13.9965 22.6794 15.6441 23.3632 17.0762 22.7687C18.5083 22.1741 19.1899 20.5252 18.5975 19.0919C18.1499 18.0089 17.0998 17.3553 15.9958 17.3553C15.639 17.3553 15.2755 17.4244 14.9238 17.5693C14.2305 17.8573 13.6902 18.3979 13.4025 19.0919C13.1147 19.7858 13.1147 20.5505 13.4025 21.2461Z" fill="#8DA4EF"/>
</svg>
