<svg width="24" height="24" viewBox="0 0 24 24" fill="none" xmlns="http://www.w3.org/2000/svg">
<path d="M9.59753 7.80103H14.3975V16.801H9.59753V7.80103Z" fill="#FF5F00"/>
<path d="M9.87906 12.301C9.87906 10.4802 10.7141 8.84607 11.9976 7.80104C11.0543 7.04106 9.86363 6.60104 8.56466 6.60104C5.48722 6.60104 2.99756 9.15017 2.99756 12.301C2.99756 15.4518 5.48722 18.001 8.56459 18.001C9.86356 18.001 11.0543 17.5611 11.9976 16.801C10.7141 15.7719 9.87906 14.1218 9.87906 12.301Z" fill="#EB001B"/>
<path d="M20.9975 12.301C20.9975 15.4518 18.5078 18.001 15.4305 18.001C14.1315 18.001 12.9409 17.5611 11.9976 16.801C13.2965 15.7561 14.1161 14.1218 14.1161 12.301C14.1161 10.4802 13.281 8.84607 11.9976 7.80104C12.9408 7.04106 14.1315 6.60104 15.4305 6.60104C18.5078 6.60104 20.9975 9.16604 20.9975 12.301Z" fill="#F79E1B"/>
</svg>
