<svg width="24" height="24" viewBox="0 0 24 24" fill="none" xmlns="http://www.w3.org/2000/svg">
<g clip-path="url(#clip0_3040_645)">
<path d="M11.6995 22.201C17.4985 22.201 22.1995 17.5 22.1995 11.701C22.1995 5.90206 17.4985 1.20105 11.6995 1.20105C5.90047 1.20105 1.19946 5.90206 1.19946 11.701C1.19946 17.5 5.90047 22.201 11.6995 22.201Z" fill="white"/>
<path d="M22.1995 11.701C22.1995 17.5005 17.499 22.201 11.6995 22.201C5.89997 22.201 1.19946 17.5005 1.19946 11.701C1.19946 10.0989 1.55697 8.58945 2.19253 7.23888C1.76882 8.31139 1.57021 9.3839 1.57021 10.377C1.57021 15.1304 5.41006 15.819 7.03868 15.8057C9.52796 15.7792 12.4277 14.5611 14.8773 12.3101C14.8773 12.3101 14.5595 14.0844 14.4668 14.6273C14.3741 15.1569 14.7184 15.6203 15.248 15.6203H15.4599C16.0027 15.6203 16.4 15.1702 16.4927 14.6273L17.3798 9.6752C17.4857 9.11908 17.1282 8.68213 16.5721 8.68213H11.62C11.0639 8.68213 10.5608 8.97343 10.4681 9.52955C10.4681 9.55603 10.4283 9.71492 10.4283 9.75464C10.3489 10.2843 10.7196 10.6815 11.2493 10.6815H13.8312C13.7915 10.7212 13.7518 10.7609 13.7121 10.8007C11.9246 12.4823 9.71334 13.4091 7.8861 13.4091C6.0721 13.4091 4.03301 12.2572 4.03301 9.6752C4.03301 4.31265 9.06453 1.20105 11.6995 1.20105C17.4857 1.20105 22.1995 5.90155 22.1995 11.701Z" fill="#DF2127"/>
</g>
<defs>
<clipPath id="clip0_3040_645">
<rect width="24" height="24" fill="white" transform="translate(-0.000488281 0.0010376)"/>
</clipPath>
</defs>
</svg>
