<svg width="24" height="24" viewBox="0 0 24 24" fill="none" xmlns="http://www.w3.org/2000/svg">
<path d="M9.41621 13.4075C9.293 14.0849 8.80466 17.2428 8.66007 18.1353C8.64938 18.1991 8.62463 18.2234 8.5543 18.2234H5.93143C5.86988 18.2238 5.80898 18.2108 5.75288 18.1854C5.69679 18.16 5.64683 18.1227 5.60644 18.0761C5.56604 18.0296 5.53616 17.9748 5.51884 17.9155C5.50152 17.8562 5.49718 17.7939 5.5061 17.7328L7.56693 4.61124C7.59531 4.44464 7.68144 4.29346 7.81012 4.18439C7.93879 4.07531 8.10174 4.01536 8.27018 4.01512C13.6256 4.01512 14.0757 3.88471 15.4434 4.41762C17.5566 5.23955 17.7501 7.22269 16.9906 9.36784C16.2344 11.5768 14.4414 12.5257 12.0644 12.554C10.5386 12.5788 9.62044 12.3067 9.41678 13.4075H9.41621ZM18.0562 8.33027C17.9926 8.28454 17.9684 8.26648 17.9504 8.37599C17.8765 8.77827 17.7731 9.17451 17.641 9.56147C16.2378 13.5769 12.3491 13.2274 10.4503 13.2274C10.2359 13.2274 10.0953 13.3437 10.0672 13.5588C9.27275 18.5124 9.11409 19.546 9.11409 19.546C9.07865 19.7967 9.23731 20.001 9.48654 20.001H11.7195C12.0222 20.001 12.2714 19.7786 12.3316 19.4755C12.3564 19.2852 12.2928 19.6906 12.838 16.2544C13 15.4781 13.341 15.5594 13.8681 15.5594C16.365 15.5594 18.3127 14.5433 18.8928 11.5971C19.1212 10.3693 19.0548 9.07768 18.0562 8.3297V8.33027Z" fill="#009CDE"/>
</svg>
