<svg width="20" height="20" viewBox="0 0 20 20" fill="none" xmlns="http://www.w3.org/2000/svg">
<path d="M15.0258 13.8478L18.595 17.4162L17.4158 18.5953L13.8475 15.0262C12.5197 16.0905 10.8683 16.6694 9.16663 16.667C5.02663 16.667 1.66663 13.307 1.66663 9.16699C1.66663 5.02699 5.02663 1.66699 9.16663 1.66699C13.3066 1.66699 16.6666 5.02699 16.6666 9.16699C16.669 10.8687 16.0901 12.5201 15.0258 13.8478ZM13.3541 13.2295C14.4117 12.1419 15.0023 10.684 15 9.16699C15 5.94366 12.3891 3.33366 9.16663 3.33366C5.94329 3.33366 3.33329 5.94366 3.33329 9.16699C3.33329 12.3895 5.94329 15.0003 9.16663 15.0003C10.6837 15.0027 12.1415 14.4121 13.2291 13.3545L13.3541 13.2295V13.2295Z" fill="black" fill-opacity="0.56"/>
</svg>
