<svg width="31" height="26" viewBox="0 0 31 26" fill="none" xmlns="http://www.w3.org/2000/svg">
<path d="M11.392 5.74854V20.2561H20.1696V5.74854H11.392ZM18.4144 12.4713L18.1573 12.7368C17.2048 13.7207 16.6592 15.0825 16.6592 16.4737V17.5357H14.904V16.4737C14.904 14.7339 15.5395 13.0284 16.6592 11.735V11.1893H14.904V12.095H13.1488V9.37462H18.416V12.4713H18.4144Z" fill="#8DA4EF"/>
<path d="M0.799988 0.307465H30.7629V3.93518H0.799988V0.307465Z" fill="#8DA4EF"/>
<path d="M0.799988 22.0687H30.7629V25.6964H0.799988V22.0687Z" fill="#8DA4EF"/>
<path d="M9.6359 5.74854H0.799988V20.2561H9.6359V5.74854ZM7.88071 12.4713L7.62366 12.7368C6.67115 13.7207 6.12551 15.0825 6.12551 16.4737V17.5357H4.37031V16.4737C4.37031 14.7339 5.00584 13.0284 6.12551 11.735V11.1893H4.37031V12.095H2.61511V9.37462H7.88228V12.4713H7.88071Z" fill="#8DA4EF"/>
<path d="M21.9263 20.2561H30.7622V5.74854H21.9263V20.2561ZM23.6815 9.37462H28.9486V12.4713L28.6916 12.7368C27.7391 13.7207 27.1934 15.0825 27.1934 16.4737V17.5357H25.4382V16.4737C25.4382 14.7339 26.0738 13.0284 27.1934 11.735V11.1893H25.4382V12.095H23.683V9.37462H23.6815Z" fill="#8DA4EF"/>
</svg>
