<svg width="24" height="24" viewBox="0 0 24 24" fill="none" xmlns="http://www.w3.org/2000/svg">
<path d="M8.54407 6.55991V17.4406H15.1272V6.55991H8.54407ZM13.8108 11.602L13.6181 11.8011C12.9037 12.539 12.4944 13.5604 12.4944 14.6037V15.4003H11.178V14.6037C11.178 13.2989 11.6547 12.0198 12.4944 11.0497V10.6405H11.178V11.3197H9.86165V9.27947H13.812V11.602H13.8108Z" fill="#3E63DD"/>
<path d="M0.599976 2.4791H23.0722V5.19988H0.599976V2.4791Z" fill="#3E63DD"/>
<path d="M0.599976 18.8H23.0722V21.5208H0.599976V18.8Z" fill="#3E63DD"/>
<path d="M7.22691 6.55991H0.599976V17.4406H7.22691V6.55991ZM5.91051 11.602L5.71773 11.8011C5.00335 12.539 4.59412 13.5604 4.59412 14.6037V15.4003H3.27772V14.6037C3.27772 13.2989 3.75436 12.0198 4.59412 11.0497V10.6405H3.27772V11.3197H1.96132V9.27947H5.9117V11.602H5.91051Z" fill="#3E63DD"/>
<path d="M16.4447 17.4406H23.0716V6.55991H16.4447V17.4406ZM17.7611 9.27947H21.7115V11.602L21.5187 11.8011C20.8043 12.539 20.3951 13.5604 20.3951 14.6037V15.4003H19.0787V14.6037C19.0787 13.2989 19.5553 12.0198 20.3951 11.0497V10.6405H19.0787V11.3197H17.7623V9.27947H17.7611Z" fill="#3E63DD"/>
</svg>
