<svg width="24" height="24" viewBox="0 0 24 24" fill="none" xmlns="http://www.w3.org/2000/svg">
<g clip-path="url(#clip0_3040_633)">
<g clip-path="url(#clip1_3040_633)">
<path d="M10.3985 15.6188H8.45435L9.67037 7.94025H11.6144L10.3985 15.6188Z" fill="#2C67CC"/>
<path d="M17.4464 8.12793C17.0629 7.97257 16.4547 7.80103 15.7026 7.80103C13.7827 7.80103 12.4307 8.84656 12.4224 10.3414C12.4064 11.4442 13.3904 12.0568 14.1263 12.4245C14.8784 12.8003 15.1341 13.0456 15.1341 13.3805C15.1265 13.8949 14.5263 14.132 13.9666 14.132C13.1904 14.132 12.7745 14.0098 12.1424 13.7236L11.8864 13.6009L11.6144 15.3246C12.0704 15.5367 12.9105 15.725 13.7827 15.7332C15.8226 15.7332 17.1507 14.7039 17.1664 13.1109C17.1742 12.2368 16.6546 11.567 15.5345 11.0197C14.8545 10.6684 14.4381 10.4315 14.4381 10.072C14.4461 9.74521 14.7903 9.41048 15.5579 9.41048C16.1899 9.39409 16.6543 9.54924 17.0061 9.70449L17.182 9.78603L17.4464 8.12793Z" fill="#2C67CC"/>
<path d="M20.03 12.8986C20.1902 12.4575 20.8063 10.7502 20.8063 10.7502C20.7982 10.7666 20.966 10.3009 21.062 10.015L21.1979 10.6767C21.1979 10.6767 21.566 12.5147 21.6461 12.8986C21.3423 12.8986 20.414 12.8986 20.03 12.8986ZM22.4298 7.94025H20.9261C20.4624 7.94025 20.11 8.079 19.9099 8.57734L17.0221 15.6187H19.0621C19.0621 15.6187 19.3979 14.671 19.4701 14.4669C19.6939 14.4669 21.6783 14.4669 21.9663 14.4669C22.022 14.7365 22.1981 15.6187 22.1981 15.6187H23.9983L22.4298 7.94025Z" fill="#2C67CC"/>
<path d="M6.83037 7.94025L4.9264 13.1763L4.71835 12.1144C4.36634 10.889 3.26236 9.55774 2.0304 8.89578L3.77438 15.6107H5.83028L8.88617 7.94025H6.83037Z" fill="#2C67CC"/>
<path d="M3.15852 7.94025H0.0305355L-0.00146484 8.09539C2.43856 8.7326 4.05453 10.2686 4.71846 12.1147L4.03847 8.5857C3.92652 8.09529 3.58249 7.95642 3.15852 7.94025Z" fill="#FAA61A"/>
</g>
</g>
<defs>
<clipPath id="clip0_3040_633">
<rect width="24" height="24" fill="white" transform="translate(-0.00146484 0.0010376)"/>
</clipPath>
<clipPath id="clip1_3040_633">
<rect width="24" height="7.9322" fill="white" transform="translate(-0.00146484 7.80103)"/>
</clipPath>
</defs>
</svg>
